<svg width="193" height="51" viewBox="0 0 193 51" fill="none" xmlns="http://www.w3.org/2000/svg">
<g filter="url(#filter0_d_626_236)">
<mask id="path-1-inside-1_626_236" fill="white">
<path d="M4.96484 21V3.84H23.3008V6.96H8.80484V11.712H21.4288V14.832H8.80484V21H4.96484ZM26.4214 21V3.84H40.7974C42.5734 3.84 43.9494 4.288 44.9254 5.184C45.9174 6.08 46.4134 7.44 46.4134 9.264C46.4134 10.816 46.0534 12.032 45.3334 12.912C44.6134 13.792 43.5894 14.344 42.2614 14.568L46.2214 21H41.8534L38.1814 14.688H30.2614V21H26.4214ZM40.3414 6.96H30.2614V11.544L40.3414 11.568C41.0454 11.568 41.5814 11.392 41.9494 11.04C42.3334 10.688 42.5254 10.096 42.5254 9.264C42.5254 8.416 42.3334 7.824 41.9494 7.488C41.5814 7.136 41.0454 6.96 40.3414 6.96ZM58.4404 21.12C55.3844 21.12 53.0164 20.392 51.3364 18.936C49.6564 17.464 48.8164 15.288 48.8164 12.408C48.8164 9.544 49.6564 7.384 51.3364 5.928C53.0164 4.456 55.4404 3.72 58.6084 3.72H62.9284C66.0964 3.72 68.5204 4.456 70.2004 5.928C71.8804 7.384 72.7204 9.544 72.7204 12.408C72.7204 15.288 71.8804 17.464 70.2004 18.936C68.5204 20.392 66.1364 21.12 63.0484 21.12H58.4404ZM58.8724 6.84C57.0964 6.84 55.7124 7.16 54.7204 7.8C53.7284 8.44 53.1044 9.456 52.8484 10.848H68.6884C68.4324 9.456 67.8084 8.44 66.8164 7.8C65.8244 7.16 64.4404 6.84 62.6644 6.84H58.8724ZM58.9444 18H62.6644C64.4564 18 65.8404 17.68 66.8164 17.04C67.8084 16.4 68.4324 15.376 68.6884 13.968H52.8484C53.1044 15.376 53.7284 16.4 54.7204 17.04C55.7124 17.68 57.1204 18 58.9444 18ZM75.5923 21V3.84H79.4803L91.6243 16.176V3.84H95.4643V21H91.5763L79.4323 8.64V21H75.5923ZM98.6989 12.528V3.84H119.819V12.528H115.931V6.96H110.699V21H106.859V6.96H102.587V12.528H98.6989ZM123.052 21V3.84H141.868V6.96H126.892V10.752H140.476V13.872H126.892V17.88H141.868V21H123.052ZM144.978 21V3.84H148.866L161.01 16.176V3.84H164.85V21H160.962L148.818 8.64V21H144.978ZM168.684 21V3.84H171.516L179.196 3.816C182.3 3.816 184.708 4.544 186.42 6C188.132 7.456 188.988 9.592 188.988 12.408C188.988 15.224 188.132 17.36 186.42 18.816C184.708 20.272 182.3 21 179.196 21H168.684ZM178.932 6.936H172.524V17.88H178.932C180.948 17.88 182.476 17.44 183.516 16.56C184.556 15.68 185.076 14.296 185.076 12.408C185.076 10.504 184.556 9.12 183.516 8.256C182.476 7.376 180.948 6.936 178.932 6.936ZM36.1948 45V27.84H54.5308V30.96H40.0348V35.712H52.6588V38.832H40.0348V45H36.1948ZM64.5874 45.12C62.8434 45.12 61.4674 44.896 60.4594 44.448C59.4514 43.984 58.7314 43.288 58.2994 42.36C57.8674 41.432 57.6514 40.264 57.6514 38.856V27.84H61.4914V38.856C61.4914 40.072 61.7714 40.904 62.3314 41.352C62.9074 41.784 63.8754 42 65.2354 42H69.8674C71.2274 42 72.1874 41.784 72.7474 41.352C73.3234 40.904 73.6114 40.072 73.6114 38.856V27.84H77.4514V38.856C77.4514 40.264 77.2354 41.432 76.8034 42.36C76.3714 43.288 75.6514 43.984 74.6434 44.448C73.6354 44.896 72.2594 45.12 70.5154 45.12H64.5874ZM80.7357 45.12V42L94.5357 42.024C95.2397 42.024 95.7757 41.864 96.1437 41.544C96.5277 41.208 96.7197 40.672 96.7197 39.936C96.7197 39.2 96.5277 38.672 96.1437 38.352C95.7757 38.016 95.2397 37.848 94.5357 37.848H85.9437C84.1677 37.848 82.7837 37.424 81.7917 36.576C80.8157 35.712 80.3277 34.448 80.3277 32.784C80.3277 31.12 80.8157 29.864 81.7917 29.016C82.7837 28.152 84.1677 27.72 85.9437 27.72H99.4317V30.84L86.3517 30.816C85.6637 30.816 85.1277 30.976 84.7437 31.296C84.3597 31.6 84.1677 32.096 84.1677 32.784C84.1677 33.472 84.3597 33.976 84.7437 34.296C85.1277 34.6 85.6637 34.752 86.3517 34.752H94.9437C96.7197 34.752 98.0957 35.192 99.0717 36.072C100.064 36.936 100.56 38.224 100.56 39.936C100.56 41.632 100.064 42.92 99.0717 43.8C98.0957 44.68 96.7197 45.12 94.9437 45.12H80.7357ZM103.447 45V27.84H107.287V45H103.447ZM119.787 45.12C116.731 45.12 114.363 44.392 112.683 42.936C111.003 41.464 110.163 39.288 110.163 36.408C110.163 33.544 111.003 31.384 112.683 29.928C114.363 28.456 116.787 27.72 119.955 27.72H124.275C127.443 27.72 129.867 28.456 131.547 29.928C133.227 31.384 134.067 33.544 134.067 36.408C134.067 39.288 133.227 41.464 131.547 42.936C129.867 44.392 127.483 45.12 124.395 45.12H119.787ZM120.219 30.84C118.443 30.84 117.059 31.16 116.067 31.8C115.075 32.44 114.451 33.456 114.195 34.848H130.035C129.779 33.456 129.155 32.44 128.163 31.8C127.171 31.16 125.787 30.84 124.011 30.84H120.219ZM120.291 42H124.011C125.803 42 127.187 41.68 128.163 41.04C129.155 40.4 129.779 39.376 130.035 37.968H114.195C114.451 39.376 115.075 40.4 116.067 41.04C117.059 41.68 118.467 42 120.291 42ZM136.939 45V27.84H140.827L152.971 40.176V27.84H156.811V45H152.923L140.779 32.64V45H136.939Z"/>
</mask>
<path d="M4.96484 21V3.84H23.3008V6.96H8.80484V11.712H21.4288V14.832H8.80484V21H4.96484ZM26.4214 21V3.84H40.7974C42.5734 3.84 43.9494 4.288 44.9254 5.184C45.9174 6.08 46.4134 7.44 46.4134 9.264C46.4134 10.816 46.0534 12.032 45.3334 12.912C44.6134 13.792 43.5894 14.344 42.2614 14.568L46.2214 21H41.8534L38.1814 14.688H30.2614V21H26.4214ZM40.3414 6.96H30.2614V11.544L40.3414 11.568C41.0454 11.568 41.5814 11.392 41.9494 11.04C42.3334 10.688 42.5254 10.096 42.5254 9.264C42.5254 8.416 42.3334 7.824 41.9494 7.488C41.5814 7.136 41.0454 6.96 40.3414 6.96ZM58.4404 21.12C55.3844 21.12 53.0164 20.392 51.3364 18.936C49.6564 17.464 48.8164 15.288 48.8164 12.408C48.8164 9.544 49.6564 7.384 51.3364 5.928C53.0164 4.456 55.4404 3.72 58.6084 3.72H62.9284C66.0964 3.72 68.5204 4.456 70.2004 5.928C71.8804 7.384 72.7204 9.544 72.7204 12.408C72.7204 15.288 71.8804 17.464 70.2004 18.936C68.5204 20.392 66.1364 21.12 63.0484 21.12H58.4404ZM58.8724 6.84C57.0964 6.84 55.7124 7.16 54.7204 7.8C53.7284 8.44 53.1044 9.456 52.8484 10.848H68.6884C68.4324 9.456 67.8084 8.44 66.8164 7.8C65.8244 7.16 64.4404 6.84 62.6644 6.84H58.8724ZM58.9444 18H62.6644C64.4564 18 65.8404 17.68 66.8164 17.04C67.8084 16.4 68.4324 15.376 68.6884 13.968H52.8484C53.1044 15.376 53.7284 16.4 54.7204 17.04C55.7124 17.68 57.1204 18 58.9444 18ZM75.5923 21V3.84H79.4803L91.6243 16.176V3.84H95.4643V21H91.5763L79.4323 8.64V21H75.5923ZM98.6989 12.528V3.84H119.819V12.528H115.931V6.96H110.699V21H106.859V6.96H102.587V12.528H98.6989ZM123.052 21V3.84H141.868V6.96H126.892V10.752H140.476V13.872H126.892V17.88H141.868V21H123.052ZM144.978 21V3.84H148.866L161.01 16.176V3.84H164.85V21H160.962L148.818 8.64V21H144.978ZM168.684 21V3.84H171.516L179.196 3.816C182.3 3.816 184.708 4.544 186.42 6C188.132 7.456 188.988 9.592 188.988 12.408C188.988 15.224 188.132 17.36 186.42 18.816C184.708 20.272 182.3 21 179.196 21H168.684ZM178.932 6.936H172.524V17.88H178.932C180.948 17.88 182.476 17.44 183.516 16.56C184.556 15.68 185.076 14.296 185.076 12.408C185.076 10.504 184.556 9.12 183.516 8.256C182.476 7.376 180.948 6.936 178.932 6.936ZM36.1948 45V27.84H54.5308V30.96H40.0348V35.712H52.6588V38.832H40.0348V45H36.1948ZM64.5874 45.12C62.8434 45.12 61.4674 44.896 60.4594 44.448C59.4514 43.984 58.7314 43.288 58.2994 42.36C57.8674 41.432 57.6514 40.264 57.6514 38.856V27.84H61.4914V38.856C61.4914 40.072 61.7714 40.904 62.3314 41.352C62.9074 41.784 63.8754 42 65.2354 42H69.8674C71.2274 42 72.1874 41.784 72.7474 41.352C73.3234 40.904 73.6114 40.072 73.6114 38.856V27.84H77.4514V38.856C77.4514 40.264 77.2354 41.432 76.8034 42.36C76.3714 43.288 75.6514 43.984 74.6434 44.448C73.6354 44.896 72.2594 45.12 70.5154 45.12H64.5874ZM80.7357 45.12V42L94.5357 42.024C95.2397 42.024 95.7757 41.864 96.1437 41.544C96.5277 41.208 96.7197 40.672 96.7197 39.936C96.7197 39.2 96.5277 38.672 96.1437 38.352C95.7757 38.016 95.2397 37.848 94.5357 37.848H85.9437C84.1677 37.848 82.7837 37.424 81.7917 36.576C80.8157 35.712 80.3277 34.448 80.3277 32.784C80.3277 31.12 80.8157 29.864 81.7917 29.016C82.7837 28.152 84.1677 27.72 85.9437 27.72H99.4317V30.84L86.3517 30.816C85.6637 30.816 85.1277 30.976 84.7437 31.296C84.3597 31.6 84.1677 32.096 84.1677 32.784C84.1677 33.472 84.3597 33.976 84.7437 34.296C85.1277 34.6 85.6637 34.752 86.3517 34.752H94.9437C96.7197 34.752 98.0957 35.192 99.0717 36.072C100.064 36.936 100.56 38.224 100.56 39.936C100.56 41.632 100.064 42.92 99.0717 43.8C98.0957 44.68 96.7197 45.12 94.9437 45.12H80.7357ZM103.447 45V27.84H107.287V45H103.447ZM119.787 45.12C116.731 45.12 114.363 44.392 112.683 42.936C111.003 41.464 110.163 39.288 110.163 36.408C110.163 33.544 111.003 31.384 112.683 29.928C114.363 28.456 116.787 27.72 119.955 27.72H124.275C127.443 27.72 129.867 28.456 131.547 29.928C133.227 31.384 134.067 33.544 134.067 36.408C134.067 39.288 133.227 41.464 131.547 42.936C129.867 44.392 127.483 45.12 124.395 45.12H119.787ZM120.219 30.84C118.443 30.84 117.059 31.16 116.067 31.8C115.075 32.44 114.451 33.456 114.195 34.848H130.035C129.779 33.456 129.155 32.44 128.163 31.8C127.171 31.16 125.787 30.84 124.011 30.84H120.219ZM120.291 42H124.011C125.803 42 127.187 41.68 128.163 41.04C129.155 40.4 129.779 39.376 130.035 37.968H114.195C114.451 39.376 115.075 40.4 116.067 41.04C117.059 41.68 118.467 42 120.291 42ZM136.939 45V27.84H140.827L152.971 40.176V27.84H156.811V45H152.923L140.779 32.64V45H136.939Z" fill="#28EEED"/>
<path d="M4.96484 21H3.96484V22H4.96484V21ZM4.96484 3.84V2.84H3.96484V3.84H4.96484ZM23.3008 3.84H24.3008V2.84H23.3008V3.84ZM23.3008 6.96V7.96H24.3008V6.96H23.3008ZM8.80484 6.96V5.96H7.80484V6.96H8.80484ZM8.80484 11.712H7.80484V12.712H8.80484V11.712ZM21.4288 11.712H22.4288V10.712H21.4288V11.712ZM21.4288 14.832V15.832H22.4288V14.832H21.4288ZM8.80484 14.832V13.832H7.80484V14.832H8.80484ZM8.80484 21V22H9.80484V21H8.80484ZM5.96484 21V3.84H3.96484V21H5.96484ZM4.96484 4.84H23.3008V2.84H4.96484V4.84ZM22.3008 3.84V6.96H24.3008V3.84H22.3008ZM23.3008 5.96H8.80484V7.96H23.3008V5.96ZM7.80484 6.96V11.712H9.80484V6.96H7.80484ZM8.80484 12.712H21.4288V10.712H8.80484V12.712ZM20.4288 11.712V14.832H22.4288V11.712H20.4288ZM21.4288 13.832H8.80484V15.832H21.4288V13.832ZM7.80484 14.832V21H9.80484V14.832H7.80484ZM8.80484 20H4.96484V22H8.80484V20ZM26.4214 21H25.4214V22H26.4214V21ZM26.4214 3.84V2.84H25.4214V3.84H26.4214ZM44.9254 5.184L44.2491 5.92068L44.2551 5.9261L44.9254 5.184ZM42.2614 14.568L42.0951 13.5819L40.6319 13.8287L41.4099 15.0923L42.2614 14.568ZM46.2214 21V22H48.0114L47.073 20.4757L46.2214 21ZM41.8534 21L40.989 21.5028L41.2783 22H41.8534V21ZM38.1814 14.688L39.0458 14.1852L38.7566 13.688H38.1814V14.688ZM30.2614 14.688V13.688H29.2614V14.688H30.2614ZM30.2614 21V22H31.2614V21H30.2614ZM30.2614 6.96V5.96H29.2614V6.96H30.2614ZM30.2614 11.544H29.2614V12.5416L30.259 12.544L30.2614 11.544ZM40.3414 11.568L40.339 12.568H40.3414V11.568ZM41.9494 11.04L41.2737 10.3028L41.2659 10.31L41.2582 10.3174L41.9494 11.04ZM41.9494 7.488L41.2582 8.21064L41.2742 8.22597L41.2909 8.24058L41.9494 7.488ZM27.4214 21V3.84H25.4214V21H27.4214ZM26.4214 4.84H40.7974V2.84H26.4214V4.84ZM40.7974 4.84C42.4098 4.84 43.5129 5.24477 44.2491 5.92065L45.6017 4.44735C44.3859 3.33123 42.737 2.84 40.7974 2.84V4.84ZM44.2551 5.9261C44.9689 6.57082 45.4134 7.61549 45.4134 9.264H47.4134C47.4134 7.26451 46.8659 5.58918 45.5957 4.4419L44.2551 5.9261ZM45.4134 9.264C45.4134 10.669 45.0878 11.633 44.5594 12.2788L46.1074 13.5452C47.0191 12.431 47.4134 10.963 47.4134 9.264H45.4134ZM44.5594 12.2788C44.02 12.9381 43.2309 13.3903 42.0951 13.5819L42.4277 15.5541C43.9479 15.2977 45.2068 14.6459 46.1074 13.5452L44.5594 12.2788ZM41.4099 15.0923L45.3699 21.5243L47.073 20.4757L43.113 14.0437L41.4099 15.0923ZM46.2214 20H41.8534V22H46.2214V20ZM42.7178 20.4972L39.0458 14.1852L37.317 15.1908L40.989 21.5028L42.7178 20.4972ZM38.1814 13.688H30.2614V15.688H38.1814V13.688ZM29.2614 14.688V21H31.2614V14.688H29.2614ZM30.2614 20H26.4214V22H30.2614V20ZM40.3414 5.96H30.2614V7.96H40.3414V5.96ZM29.2614 6.96V11.544H31.2614V6.96H29.2614ZM30.259 12.544L40.339 12.568L40.3438 10.568L30.2638 10.544L30.259 12.544ZM40.3414 12.568C41.2032 12.568 42.0251 12.3514 42.6406 11.7626L41.2582 10.3174C41.1377 10.4326 40.8876 10.568 40.3414 10.568V12.568ZM42.6251 11.7772C43.3114 11.1481 43.5254 10.2129 43.5254 9.264H41.5254C41.5254 9.97909 41.3554 10.2279 41.2737 10.3028L42.6251 11.7772ZM43.5254 9.264C43.5254 8.31216 43.3172 7.35602 42.6079 6.73542L41.2909 8.24058C41.3496 8.29198 41.5254 8.51984 41.5254 9.264H43.5254ZM42.6406 6.76536C42.0251 6.17664 41.2032 5.96 40.3414 5.96V7.96C40.8876 7.96 41.1377 8.09536 41.2582 8.21064L42.6406 6.76536ZM51.3364 18.936L50.6774 19.6881L50.6815 19.6917L51.3364 18.936ZM51.3364 5.928L51.9913 6.6837L51.9954 6.68013L51.3364 5.928ZM70.2004 5.928L69.5414 6.68014L69.5455 6.68369L70.2004 5.928ZM70.2004 18.936L70.8553 19.6917L70.8594 19.6881L70.2004 18.936ZM54.7204 7.8L55.2625 8.6403L54.7204 7.8ZM52.8484 10.848L51.8649 10.6671L51.6477 11.848H52.8484V10.848ZM68.6884 10.848V11.848H69.8891L69.6719 10.6671L68.6884 10.848ZM66.8164 7.8L66.2743 8.6403L66.2743 8.6403L66.8164 7.8ZM66.8164 17.04L66.2743 16.1997L66.268 16.2038L66.8164 17.04ZM68.6884 13.968L69.6723 14.1469L69.8866 12.968H68.6884V13.968ZM52.8484 13.968V12.968H51.6502L51.8645 14.1469L52.8484 13.968ZM58.4404 20.12C55.5348 20.12 53.4313 19.4283 51.9913 18.1803L50.6815 19.6917C52.6015 21.3557 55.234 22.12 58.4404 22.12V20.12ZM51.9954 18.1839C50.5911 16.9535 49.8164 15.0889 49.8164 12.408H47.8164C47.8164 15.4871 48.7217 17.9745 50.6774 19.6881L51.9954 18.1839ZM49.8164 12.408C49.8164 9.74454 50.5901 7.89809 51.9913 6.68369L50.6815 5.17231C48.7227 6.86991 47.8164 9.34346 47.8164 12.408H49.8164ZM51.9954 6.68013C53.4295 5.42359 55.5824 4.72 58.6084 4.72V2.72C55.2984 2.72 52.6033 3.4884 50.6774 5.17587L51.9954 6.68013ZM58.6084 4.72H62.9284V2.72H58.6084V4.72ZM62.9284 4.72C65.9544 4.72 68.1073 5.42359 69.5414 6.68013L70.8594 5.17587C68.9335 3.4884 66.2384 2.72 62.9284 2.72V4.72ZM69.5455 6.68369C70.9467 7.89809 71.7204 9.74454 71.7204 12.408H73.7204C73.7204 9.34346 72.8141 6.86991 70.8553 5.17231L69.5455 6.68369ZM71.7204 12.408C71.7204 15.0889 70.9457 16.9535 69.5414 18.1839L70.8594 19.6881C72.8151 17.9745 73.7204 15.4871 73.7204 12.408H71.7204ZM69.5455 18.1803C68.1072 19.4268 65.9891 20.12 63.0484 20.12V22.12C66.2837 22.12 68.9336 21.3572 70.8553 19.6917L69.5455 18.1803ZM63.0484 20.12H58.4404V22.12H63.0484V20.12ZM58.8724 5.84C56.9947 5.84 55.3941 6.17531 54.1783 6.9597L55.2625 8.6403C56.0307 8.14469 57.1981 7.84 58.8724 7.84V5.84ZM54.1783 6.9597C52.909 7.77861 52.1601 9.06219 51.8649 10.6671L53.8319 11.0289C54.0488 9.84981 54.5478 9.10139 55.2625 8.6403L54.1783 6.9597ZM52.8484 11.848H68.6884V9.848H52.8484V11.848ZM69.6719 10.6671C69.3768 9.06219 68.6278 7.77861 67.3585 6.9597L66.2743 8.6403C66.989 9.10139 67.4881 9.84981 67.7049 11.0289L69.6719 10.6671ZM67.3585 6.9597C66.1427 6.17531 64.5421 5.84 62.6644 5.84V7.84C64.3387 7.84 65.5061 8.14469 66.2743 8.6403L67.3585 6.9597ZM62.6644 5.84H58.8724V7.84H62.6644V5.84ZM58.9444 19H62.6644V17H58.9444V19ZM62.6644 19C64.5544 19 66.1603 18.666 67.3648 17.8762L66.268 16.2038C65.5205 16.694 64.3584 17 62.6644 17V19ZM67.3585 17.8803C68.6312 17.0592 69.3781 15.7647 69.6723 14.1469L67.7045 13.7891C67.4867 14.9873 66.9856 15.7408 66.2743 16.1997L67.3585 17.8803ZM68.6884 12.968H52.8484V14.968H68.6884V12.968ZM51.8645 14.1469C52.1587 15.7647 52.9056 17.0592 54.1783 17.8803L55.2625 16.1997C54.5512 15.7408 54.0501 14.9873 53.8323 13.7891L51.8645 14.1469ZM54.1783 17.8803C55.3975 18.6669 57.025 19 58.9444 19V17C57.2158 17 56.0273 16.6931 55.2625 16.1997L54.1783 17.8803ZM75.5923 21H74.5923V22H75.5923V21ZM75.5923 3.84V2.84H74.5923V3.84H75.5923ZM79.4803 3.84L80.193 3.13846L79.8992 2.84H79.4803V3.84ZM91.6243 16.176L90.9117 16.8775L92.6243 18.6172V16.176H91.6243ZM91.6243 3.84V2.84H90.6243V3.84H91.6243ZM95.4643 3.84H96.4643V2.84H95.4643V3.84ZM95.4643 21V22H96.4643V21H95.4643ZM91.5763 21L90.863 21.7008L91.157 22H91.5763V21ZM79.4323 8.64L80.1457 7.93915L78.4323 6.19537V8.64H79.4323ZM79.4323 21V22H80.4323V21H79.4323ZM76.5923 21V3.84H74.5923V21H76.5923ZM75.5923 4.84H79.4803V2.84H75.5923V4.84ZM78.7677 4.54154L90.9117 16.8775L92.337 15.4745L80.193 3.13846L78.7677 4.54154ZM92.6243 16.176V3.84H90.6243V16.176H92.6243ZM91.6243 4.84H95.4643V2.84H91.6243V4.84ZM94.4643 3.84V21H96.4643V3.84H94.4643ZM95.4643 20H91.5763V22H95.4643V20ZM92.2897 20.2992L80.1457 7.93915L78.719 9.34085L90.863 21.7008L92.2897 20.2992ZM78.4323 8.64V21H80.4323V8.64H78.4323ZM79.4323 20H75.5923V22H79.4323V20ZM98.6989 12.528H97.6989V13.528H98.6989V12.528ZM98.6989 3.84V2.84H97.6989V3.84H98.6989ZM119.819 3.84H120.819V2.84H119.819V3.84ZM119.819 12.528V13.528H120.819V12.528H119.819ZM115.931 12.528H114.931V13.528H115.931V12.528ZM115.931 6.96H116.931V5.96H115.931V6.96ZM110.699 6.96V5.96H109.699V6.96H110.699ZM110.699 21V22H111.699V21H110.699ZM106.859 21H105.859V22H106.859V21ZM106.859 6.96H107.859V5.96H106.859V6.96ZM102.587 6.96V5.96H101.587V6.96H102.587ZM102.587 12.528V13.528H103.587V12.528H102.587ZM99.6989 12.528V3.84H97.6989V12.528H99.6989ZM98.6989 4.84H119.819V2.84H98.6989V4.84ZM118.819 3.84V12.528H120.819V3.84H118.819ZM119.819 11.528H115.931V13.528H119.819V11.528ZM116.931 12.528V6.96H114.931V12.528H116.931ZM115.931 5.96H110.699V7.96H115.931V5.96ZM109.699 6.96V21H111.699V6.96H109.699ZM110.699 20H106.859V22H110.699V20ZM107.859 21V6.96H105.859V21H107.859ZM106.859 5.96H102.587V7.96H106.859V5.96ZM101.587 6.96V12.528H103.587V6.96H101.587ZM102.587 11.528H98.6989V13.528H102.587V11.528ZM123.052 21H122.052V22H123.052V21ZM123.052 3.84V2.84H122.052V3.84H123.052ZM141.868 3.84H142.868V2.84H141.868V3.84ZM141.868 6.96V7.96H142.868V6.96H141.868ZM126.892 6.96V5.96H125.892V6.96H126.892ZM126.892 10.752H125.892V11.752H126.892V10.752ZM140.476 10.752H141.476V9.752H140.476V10.752ZM140.476 13.872V14.872H141.476V13.872H140.476ZM126.892 13.872V12.872H125.892V13.872H126.892ZM126.892 17.88H125.892V18.88H126.892V17.88ZM141.868 17.88H142.868V16.88H141.868V17.88ZM141.868 21V22H142.868V21H141.868ZM124.052 21V3.84H122.052V21H124.052ZM123.052 4.84H141.868V2.84H123.052V4.84ZM140.868 3.84V6.96H142.868V3.84H140.868ZM141.868 5.96H126.892V7.96H141.868V5.96ZM125.892 6.96V10.752H127.892V6.96H125.892ZM126.892 11.752H140.476V9.752H126.892V11.752ZM139.476 10.752V13.872H141.476V10.752H139.476ZM140.476 12.872H126.892V14.872H140.476V12.872ZM125.892 13.872V17.88H127.892V13.872H125.892ZM126.892 18.88H141.868V16.88H126.892V18.88ZM140.868 17.88V21H142.868V17.88H140.868ZM141.868 20H123.052V22H141.868V20ZM144.978 21H143.978V22H144.978V21ZM144.978 3.84V2.84H143.978V3.84H144.978ZM148.866 3.84L149.578 3.13846L149.284 2.84H148.866V3.84ZM161.01 16.176L160.297 16.8775L162.01 18.6172V16.176H161.01ZM161.01 3.84V2.84H160.01V3.84H161.01ZM164.85 3.84H165.85V2.84H164.85V3.84ZM164.85 21V22H165.85V21H164.85ZM160.962 21L160.248 21.7008L160.542 22H160.962V21ZM148.818 8.64L149.531 7.93915L147.818 6.19537V8.64H148.818ZM148.818 21V22H149.818V21H148.818ZM145.978 21V3.84H143.978V21H145.978ZM144.978 4.84H148.866V2.84H144.978V4.84ZM148.153 4.54154L160.297 16.8775L161.722 15.4745L149.578 3.13846L148.153 4.54154ZM162.01 16.176V3.84H160.01V16.176H162.01ZM161.01 4.84H164.85V2.84H161.01V4.84ZM163.85 3.84V21H165.85V3.84H163.85ZM164.85 20H160.962V22H164.85V20ZM161.675 20.2992L149.531 7.93915L148.104 9.34085L160.248 21.7008L161.675 20.2992ZM147.818 8.64V21H149.818V8.64H147.818ZM148.818 20H144.978V22H148.818V20ZM168.684 21H167.684V22H168.684V21ZM168.684 3.84V2.84H167.684V3.84H168.684ZM171.516 3.84V4.84L171.519 4.83999L171.516 3.84ZM179.196 3.816V2.81599L179.193 2.816L179.196 3.816ZM186.42 6L185.772 6.76176V6.76176L186.42 6ZM186.42 18.816L185.772 18.0542L186.42 18.816ZM172.524 6.936V5.936H171.524V6.936H172.524ZM172.524 17.88H171.524V18.88H172.524V17.88ZM183.516 16.56L184.162 17.3234V17.3234L183.516 16.56ZM183.516 8.256L182.87 9.01942L182.877 9.02519L183.516 8.256ZM169.684 21V3.84H167.684V21H169.684ZM168.684 4.84H171.516V2.84H168.684V4.84ZM171.519 4.83999L179.199 4.81599L179.193 2.816L171.513 2.84L171.519 4.83999ZM179.196 4.816C182.153 4.816 184.3 5.50931 185.772 6.76176L187.068 5.23824C185.117 3.57869 182.447 2.816 179.196 2.816V4.816ZM185.772 6.76176C187.206 7.9812 187.988 9.80485 187.988 12.408H189.988C189.988 9.37915 189.058 6.9308 187.068 5.23824L185.772 6.76176ZM187.988 12.408C187.988 15.0111 187.206 16.8348 185.772 18.0542L187.068 19.5778C189.058 17.8852 189.988 15.4369 189.988 12.408H187.988ZM185.772 18.0542C184.3 19.3067 182.153 20 179.196 20V22C182.447 22 185.117 21.2373 187.068 19.5778L185.772 18.0542ZM179.196 20H168.684V22H179.196V20ZM178.932 5.936H172.524V7.936H178.932V5.936ZM171.524 6.936V17.88H173.524V6.936H171.524ZM172.524 18.88H178.932V16.88H172.524V18.88ZM178.932 18.88C181.075 18.88 182.872 18.4147 184.162 17.3234L182.87 15.7966C182.08 16.4653 180.822 16.88 178.932 16.88V18.88ZM184.162 17.3234C185.504 16.1881 186.076 14.4713 186.076 12.408H184.076C184.076 14.1207 183.609 15.1719 182.87 15.7966L184.162 17.3234ZM186.076 12.408C186.076 10.3334 185.506 8.60912 184.155 7.48681L182.877 9.02519C183.606 9.63088 184.076 10.6746 184.076 12.408H186.076ZM184.162 7.49261C182.872 6.40126 181.075 5.936 178.932 5.936V7.936C180.822 7.936 182.08 8.35074 182.87 9.01939L184.162 7.49261ZM36.1948 45H35.1948V46H36.1948V45ZM36.1948 27.84V26.84H35.1948V27.84H36.1948ZM54.5308 27.84H55.5308V26.84H54.5308V27.84ZM54.5308 30.96V31.96H55.5308V30.96H54.5308ZM40.0348 30.96V29.96H39.0348V30.96H40.0348ZM40.0348 35.712H39.0348V36.712H40.0348V35.712ZM52.6588 35.712H53.6588V34.712H52.6588V35.712ZM52.6588 38.832V39.832H53.6588V38.832H52.6588ZM40.0348 38.832V37.832H39.0348V38.832H40.0348ZM40.0348 45V46H41.0348V45H40.0348ZM37.1948 45V27.84H35.1948V45H37.1948ZM36.1948 28.84H54.5308V26.84H36.1948V28.84ZM53.5308 27.84V30.96H55.5308V27.84H53.5308ZM54.5308 29.96H40.0348V31.96H54.5308V29.96ZM39.0348 30.96V35.712H41.0348V30.96H39.0348ZM40.0348 36.712H52.6588V34.712H40.0348V36.712ZM51.6588 35.712V38.832H53.6588V35.712H51.6588ZM52.6588 37.832H40.0348V39.832H52.6588V37.832ZM39.0348 38.832V45H41.0348V38.832H39.0348ZM40.0348 44H36.1948V46H40.0348V44ZM60.4594 44.448L60.0412 45.3565L60.0533 45.3618L60.4594 44.448ZM57.6514 27.84V26.84H56.6514V27.84H57.6514ZM61.4914 27.84H62.4914V26.84H61.4914V27.84ZM62.3314 41.352L61.7067 42.1329L61.7189 42.1426L61.7314 42.152L62.3314 41.352ZM72.7474 41.352L73.3582 42.1438L73.3614 42.1413L72.7474 41.352ZM73.6114 27.84V26.84H72.6114V27.84H73.6114ZM77.4514 27.84H78.4514V26.84H77.4514V27.84ZM74.6434 44.448L75.0496 45.3619L75.0616 45.3564L74.6434 44.448ZM64.5874 44.12C62.911 44.12 61.6929 43.9019 60.8655 43.5342L60.0533 45.3618C61.2419 45.8901 62.7758 46.12 64.5874 46.12V44.12ZM60.8775 43.5396C60.0654 43.1658 59.5293 42.6324 59.206 41.938L57.3928 42.782C57.9335 43.9436 58.8374 44.8022 60.0413 45.3564L60.8775 43.5396ZM59.206 41.938C58.8541 41.182 58.6514 40.1697 58.6514 38.856H56.6514C56.6514 40.3583 56.8807 41.682 57.3928 42.782L59.206 41.938ZM58.6514 38.856V27.84H56.6514V38.856H58.6514ZM57.6514 28.84H61.4914V26.84H57.6514V28.84ZM60.4914 27.84V38.856H62.4914V27.84H60.4914ZM60.4914 38.856C60.4914 40.1703 60.7856 41.396 61.7067 42.1329L62.9561 40.5711C62.7572 40.412 62.4914 39.9737 62.4914 38.856H60.4914ZM61.7314 42.152C62.5776 42.7867 63.8244 43 65.2354 43V41C63.9264 41 63.2372 40.7813 62.9314 40.552L61.7314 42.152ZM65.2354 43H69.8674V41H65.2354V43ZM69.8674 43C71.2739 43 72.5226 42.7884 73.3582 42.1438L72.1366 40.5602C71.8522 40.7796 71.1809 41 69.8674 41V43ZM73.3614 42.1413C74.3054 41.4071 74.6114 40.1781 74.6114 38.856H72.6114C72.6114 39.9659 72.3414 40.4009 72.1335 40.5626L73.3614 42.1413ZM74.6114 38.856V27.84H72.6114V38.856H74.6114ZM73.6114 28.84H77.4514V26.84H73.6114V28.84ZM76.4514 27.84V38.856H78.4514V27.84H76.4514ZM76.4514 38.856C76.4514 40.1697 76.2487 41.182 75.8968 41.938L77.71 42.782C78.2221 41.682 78.4514 40.3583 78.4514 38.856H76.4514ZM75.8968 41.938C75.5735 42.6324 75.0374 43.1658 74.2253 43.5396L75.0616 45.3564C76.2654 44.8022 77.1693 43.9436 77.71 42.782L75.8968 41.938ZM74.2373 43.5342C73.4099 43.9019 72.1918 44.12 70.5154 44.12V46.12C72.327 46.12 73.8609 45.8901 75.0495 45.3618L74.2373 43.5342ZM70.5154 44.12H64.5874V46.12H70.5154V44.12ZM80.7356 45.12H79.7356V46.12H80.7356V45.12ZM80.7356 42L80.7374 41L79.7356 40.9983V42H80.7356ZM94.5357 42.024L94.5339 43.024H94.5357V42.024ZM96.1437 41.544L96.7998 42.2986L96.8022 42.2966L96.1437 41.544ZM96.1437 38.352L95.4694 39.0905L95.4861 39.1057L95.5035 39.1202L96.1437 38.352ZM81.7916 36.576L81.1288 37.3248L81.1353 37.3305L81.1419 37.3361L81.7916 36.576ZM81.7916 29.016L82.4475 29.7709L82.4484 29.7701L81.7916 29.016ZM99.4316 27.72H100.432V26.72H99.4316V27.72ZM99.4316 30.84L99.4298 31.84L100.432 31.8418V30.84H99.4316ZM86.3517 30.816L86.3535 29.816H86.3517V30.816ZM84.7437 31.296L85.3644 32.08L85.3742 32.0723L85.3838 32.0642L84.7437 31.296ZM84.7437 34.296L84.1035 35.0642L84.1131 35.0723L84.1229 35.08L84.7437 34.296ZM99.0717 36.072L98.402 36.8147L98.4084 36.8204L98.4149 36.8261L99.0717 36.072ZM99.0717 43.8L98.408 43.0519L98.402 43.0573L99.0717 43.8ZM81.7356 45.12V42H79.7356V45.12H81.7356ZM80.7339 43L94.5339 43.024L94.5374 41.024L80.7374 41L80.7339 43ZM94.5357 43.024C95.3756 43.024 96.1837 42.8344 96.7998 42.2986L95.4875 40.7894C95.3676 40.8936 95.1037 41.024 94.5357 41.024V43.024ZM96.8022 42.2966C97.4853 41.6988 97.7197 40.8296 97.7197 39.936H95.7197C95.7197 40.5144 95.57 40.7172 95.4851 40.7914L96.8022 42.2966ZM97.7197 39.936C97.7197 39.047 97.487 38.1698 96.7838 37.5838L95.5035 39.1202C95.5683 39.1742 95.7197 39.353 95.7197 39.936H97.7197ZM96.8179 37.6135C96.2017 37.0509 95.3864 36.848 94.5357 36.848V38.848C95.0929 38.848 95.3496 38.9811 95.4694 39.0905L96.8179 37.6135ZM94.5357 36.848H85.9436V38.848H94.5357V36.848ZM85.9436 36.848C84.3197 36.848 83.1961 36.461 82.4414 35.8159L81.1419 37.3361C82.3712 38.387 84.0156 38.848 85.9436 38.848V36.848ZM82.4545 35.8272C81.7491 35.2028 81.3277 34.2464 81.3277 32.784H79.3277C79.3277 34.6496 79.8822 36.2212 81.1288 37.3248L82.4545 35.8272ZM81.3277 32.784C81.3277 31.3206 81.7493 30.3775 82.4475 29.7709L81.1358 28.2611C79.882 29.3505 79.3277 30.9194 79.3277 32.784H81.3277ZM82.4484 29.7701C83.203 29.1128 84.3239 28.72 85.9436 28.72V26.72C84.0114 26.72 82.3643 27.1912 81.1349 28.2619L82.4484 29.7701ZM85.9436 28.72H99.4316V26.72H85.9436V28.72ZM98.4316 27.72V30.84H100.432V27.72H98.4316ZM99.4335 29.84L86.3535 29.816L86.3498 31.816L99.4298 31.84L99.4335 29.84ZM86.3517 29.816C85.5173 29.816 84.7246 30.0102 84.1035 30.5278L85.3838 32.0642C85.5307 31.9418 85.81 31.816 86.3517 31.816V29.816ZM84.1229 30.512C83.413 31.074 83.1676 31.9207 83.1676 32.784H85.1676C85.1676 32.2713 85.3063 32.126 85.3644 32.08L84.1229 30.512ZM83.1676 32.784C83.1676 33.6512 83.4144 34.49 84.1035 35.0642L85.3838 33.5278C85.3049 33.462 85.1676 33.2928 85.1676 32.784H83.1676ZM84.1229 35.08C84.7429 35.5708 85.5278 35.752 86.3517 35.752V33.752C85.7995 33.752 85.5124 33.6292 85.3644 33.512L84.1229 35.08ZM86.3517 35.752H94.9436V33.752H86.3517V35.752ZM94.9436 35.752C96.5603 35.752 97.666 36.1511 98.402 36.8147L99.7413 35.3293C98.5253 34.2329 96.879 33.752 94.9436 33.752V35.752ZM98.4149 36.8261C99.1274 37.4467 99.5597 38.4203 99.5597 39.936H101.56C101.56 38.0277 101 36.4253 99.7284 35.3179L98.4149 36.8261ZM99.5597 39.936C99.5597 41.4313 99.1297 42.4118 98.408 43.0519L99.7353 44.5481C100.998 43.4282 101.56 41.8327 101.56 39.936H99.5597ZM98.402 43.0573C97.666 43.7209 96.5603 44.12 94.9436 44.12V46.12C96.879 46.12 98.5253 45.6391 99.7413 44.5427L98.402 43.0573ZM94.9436 44.12H80.7356V46.12H94.9436V44.12ZM103.447 45H102.447V46H103.447V45ZM103.447 27.84V26.84H102.447V27.84H103.447ZM107.287 27.84H108.287V26.84H107.287V27.84ZM107.287 45V46H108.287V45H107.287ZM104.447 45V27.84H102.447V45H104.447ZM103.447 28.84H107.287V26.84H103.447V28.84ZM106.287 27.84V45H108.287V27.84H106.287ZM107.287 44H103.447V46H107.287V44ZM112.683 42.936L112.024 43.6881L112.028 43.6917L112.683 42.936ZM112.683 29.928L113.338 30.6837L113.342 30.6801L112.683 29.928ZM131.547 29.928L130.888 30.6801L130.892 30.6837L131.547 29.928ZM131.547 42.936L132.202 43.6917L132.206 43.6881L131.547 42.936ZM116.067 31.8L116.609 32.6403L116.067 31.8ZM114.195 34.848L113.211 34.6671L112.994 35.848H114.195V34.848ZM130.035 34.848V35.848H131.235L131.018 34.6671L130.035 34.848ZM128.163 31.8L127.621 32.6403L128.163 31.8ZM128.163 41.04L127.621 40.1997L127.614 40.2038L128.163 41.04ZM130.035 37.968L131.019 38.1469L131.233 36.968H130.035V37.968ZM114.195 37.968V36.968H112.996L113.211 38.1469L114.195 37.968ZM119.787 44.12C116.881 44.12 114.778 43.4283 113.338 42.1803L112.028 43.6917C113.948 45.3557 116.58 46.12 119.787 46.12V44.12ZM113.342 42.1839C111.937 40.9535 111.163 39.0889 111.163 36.408H109.163C109.163 39.4871 110.068 41.9745 112.024 43.6881L113.342 42.1839ZM111.163 36.408C111.163 33.7445 111.936 31.8981 113.338 30.6837L112.028 29.1723C110.069 30.8699 109.163 33.3435 109.163 36.408H111.163ZM113.342 30.6801C114.776 29.4236 116.929 28.72 119.955 28.72V26.72C116.645 26.72 113.95 27.4884 112.024 29.1759L113.342 30.6801ZM119.955 28.72H124.275V26.72H119.955V28.72ZM124.275 28.72C127.301 28.72 129.454 29.4236 130.888 30.6801L132.206 29.1759C130.28 27.4884 127.585 26.72 124.275 26.72V28.72ZM130.892 30.6837C132.293 31.8981 133.067 33.7445 133.067 36.408H135.067C135.067 33.3435 134.16 30.8699 132.202 29.1723L130.892 30.6837ZM133.067 36.408C133.067 39.0889 132.292 40.9535 130.888 42.1839L132.206 43.6881C134.161 41.9745 135.067 39.4871 135.067 36.408H133.067ZM130.892 42.1803C129.453 43.4268 127.335 44.12 124.395 44.12V46.12C127.63 46.12 130.28 45.3572 132.202 43.6917L130.892 42.1803ZM124.395 44.12H119.787V46.12H124.395V44.12ZM120.219 29.84C118.341 29.84 116.74 30.1753 115.525 30.9597L116.609 32.6403C117.377 32.1447 118.544 31.84 120.219 31.84V29.84ZM115.525 30.9597C114.255 31.7786 113.506 33.0622 113.211 34.6671L115.178 35.0289C115.395 33.8498 115.894 33.1014 116.609 32.6403L115.525 30.9597ZM114.195 35.848H130.035V33.848H114.195V35.848ZM131.018 34.6671C130.723 33.0622 129.974 31.7786 128.705 30.9597L127.621 32.6403C128.335 33.1014 128.834 33.8498 129.051 35.0289L131.018 34.6671ZM128.705 30.9597C127.489 30.1753 125.888 29.84 124.011 29.84V31.84C125.685 31.84 126.852 32.1447 127.621 32.6403L128.705 30.9597ZM124.011 29.84H120.219V31.84H124.011V29.84ZM120.291 43H124.011V41H120.291V43ZM124.011 43C125.901 43 127.507 42.666 128.711 41.8762L127.614 40.2038C126.867 40.694 125.705 41 124.011 41V43ZM128.705 41.8803C129.977 41.0592 130.724 39.7647 131.019 38.1469L129.051 37.7891C128.833 38.9873 128.332 39.7408 127.621 40.1997L128.705 41.8803ZM130.035 36.968H114.195V38.968H130.035V36.968ZM113.211 38.1469C113.505 39.7647 114.252 41.0592 115.525 41.8803L116.609 40.1997C115.897 39.7408 115.396 38.9873 115.179 37.7891L113.211 38.1469ZM115.525 41.8803C116.744 42.6669 118.371 43 120.291 43V41C118.562 41 117.374 40.6931 116.609 40.1997L115.525 41.8803ZM136.939 45H135.939V46H136.939V45ZM136.939 27.84V26.84H135.939V27.84H136.939ZM140.827 27.84L141.539 27.1385L141.245 26.84H140.827V27.84ZM152.971 40.176L152.258 40.8775L153.971 42.6172V40.176H152.971ZM152.971 27.84V26.84H151.971V27.84H152.971ZM156.811 27.84H157.811V26.84H156.811V27.84ZM156.811 45V46H157.811V45H156.811ZM152.923 45L152.209 45.7008L152.503 46H152.923V45ZM140.779 32.64L141.492 31.9392L139.779 30.1954V32.64H140.779ZM140.779 45V46H141.779V45H140.779ZM137.939 45V27.84H135.939V45H137.939ZM136.939 28.84H140.827V26.84H136.939V28.84ZM140.114 28.5415L152.258 40.8775L153.683 39.4745L141.539 27.1385L140.114 28.5415ZM153.971 40.176V27.84H151.971V40.176H153.971ZM152.971 28.84H156.811V26.84H152.971V28.84ZM155.811 27.84V45H157.811V27.84H155.811ZM156.811 44H152.923V46H156.811V44ZM153.636 44.2992L141.492 31.9392L140.065 33.3408L152.209 45.7008L153.636 44.2992ZM139.779 32.64V45H141.779V32.64H139.779ZM140.779 44H136.939V46H140.779V44Z" fill="#28EEED" mask="url(#path-1-inside-1_626_236)"/>
</g>
<defs>
<filter id="filter0_d_626_236" x="0.964844" y="0.719971" width="192.023" height="49.4" filterUnits="userSpaceOnUse" color-interpolation-filters="sRGB">
<feFlood flood-opacity="0" result="BackgroundImageFix"/>
<feColorMatrix in="SourceAlpha" type="matrix" values="0 0 0 0 0 0 0 0 0 0 0 0 0 0 0 0 0 0 127 0" result="hardAlpha"/>
<feOffset dy="1"/>
<feGaussianBlur stdDeviation="2"/>
<feComposite in2="hardAlpha" operator="out"/>
<feColorMatrix type="matrix" values="0 0 0 0 0.156863 0 0 0 0 0.933333 0 0 0 0 0.929412 0 0 0 0.4 0"/>
<feBlend mode="normal" in2="BackgroundImageFix" result="effect1_dropShadow_626_236"/>
<feBlend mode="normal" in="SourceGraphic" in2="effect1_dropShadow_626_236" result="shape"/>
</filter>
</defs>
</svg>
